<?xml version="1.0" encoding="UTF-8"?>
<svg version="1.1" xmlns="http://www.w3.org/2000/svg" width="866" height="650">
<path d="M0 0 C285.78 0 571.56 0 866 0 C866 214.5 866 429 866 650 C580.22 650 294.44 650 0 650 C0 435.5 0 221 0 0 Z " fill="#FEFEFE" transform="translate(0,0)"/>
<path d="M0 0 C0.99773437 0.30035156 1.99546875 0.60070312 3.0234375 0.91015625 C9.57216079 2.98242348 15.91619978 5.53932072 22.29443359 8.07470703 C30.56403993 11.30915574 38.99101115 14.05962314 47.43383789 16.8034668 C53.28704485 18.71546557 59.04131338 20.73806522 64.73925781 23.07348633 C68.09333831 24.4480798 71.48150288 25.72656397 74.875 27 C75.49246094 27.23460938 76.10992188 27.46921875 76.74609375 27.7109375 C80.71673276 29.20293519 84.71500198 30.58196311 88.7421875 31.9140625 C94.94872037 33.96763017 101.10262943 36.15136013 107.25 38.375 C108.34046631 38.76856689 109.43093262 39.16213379 110.55444336 39.56762695 C120.23991193 43.07118636 129.89322592 46.65385628 139.5078125 50.34765625 C148.2158075 53.66630827 156.99481626 56.73462629 165.8125 59.75 C177.57100943 63.77233361 189.24031972 68.00417279 200.8828125 72.3515625 C232.43887061 84.15930553 232.43887061 84.15930553 264.3125 95.0625 C268.29521069 96.37195877 272.14246584 97.85817757 276 99.5 C280.7276204 101.51136549 285.47533865 103.195856 290.359375 104.78125 C298.0353304 107.35088314 305.62473541 110.1679644 313.21679688 112.97412109 C315.01839052 113.63818219 316.82167997 114.29766808 318.62695312 114.95166016 C339.80058323 122.6305971 339.80058323 122.6305971 345.5 132.5 C348.95034338 140.11911442 349.71913243 147.93698644 347.00390625 155.93359375 C341.85711283 166.72422294 334.94042324 171.02502685 323.93212891 175.14941406 C322.87429199 175.51776367 321.81645508 175.88611328 320.7265625 176.265625 C315.2112269 178.20939401 309.71657248 180.19906815 304.234375 182.234375 C302.68140739 182.81008801 301.12842868 183.38577108 299.57543945 183.96142578 C298.39288071 184.39989838 298.39288071 184.39989838 297.18643188 184.847229 C282.98699983 190.10854392 268.75960325 195.24706189 254.42578125 200.1328125 C248.92261454 202.01466903 243.45797729 203.99121044 238 206 C237.35606293 206.23696594 236.71212585 206.47393188 236.04867554 206.71807861 C229.79476011 209.02016761 223.54255207 211.32688615 217.29077148 213.63476562 C197.7285944 220.85526025 178.13395626 227.97538935 158.47518921 234.92886353 C141.22846507 241.03220396 124.03133749 247.23234853 106.94995117 253.78662109 C101.23350147 255.96037354 95.4400591 257.86499351 89.62304688 259.75 C85.66369744 261.05059041 81.85516378 262.47506545 78.03930664 264.16064453 C73.19984954 266.15251015 68.20118954 267.74856917 63.25 269.4375 C55.93141616 271.94322761 48.6276561 274.47488078 41.36376953 277.13549805 C38.52109879 278.17514865 35.66738454 279.18193338 32.8125 280.1875 C28.30143722 281.78372221 23.82723793 283.44580025 19.3671875 285.1796875 C-12.29695532 297.44478942 -36.37945632 298.80804906 -68.55566406 286.89648438 C-71.58694159 285.78473337 -74.63584053 284.72872337 -77.68725586 283.67382812 C-83.48841572 281.6639145 -89.20062177 279.5372994 -94.875 277.1875 C-103.11943832 273.82800161 -111.5587981 271.10524386 -120.01245117 268.32373047 C-128.76959954 265.43458556 -137.4015429 262.32661619 -146 259 C-156.88001271 254.82716739 -167.84131206 250.93819297 -178.86474609 247.15893555 C-186.56297122 244.51699967 -194.17280209 241.722271 -201.75 238.75 C-208.10832456 236.29886222 -214.5241328 234.03730182 -220.96582031 231.81542969 C-225.68004688 230.18365032 -230.36753273 228.49938076 -235.03515625 226.73828125 C-236.03039307 226.36550049 -237.02562988 225.99271973 -238.05102539 225.60864258 C-239.98458367 224.88173736 -241.91491817 224.14618552 -243.84155273 223.40112305 C-244.71884033 223.07281494 -245.59612793 222.74450684 -246.5 222.40625 C-247.66015625 221.96249023 -247.66015625 221.96249023 -248.84375 221.50976562 C-251.33114237 220.92171363 -252.6239257 221.10405746 -255 222 C-262.77503948 227.95066014 -269.08478664 235.24377181 -275 243 C-275.68964844 243.8971875 -276.37929688 244.794375 -277.08984375 245.71875 C-293.2468475 267.30277036 -310.22464683 303.10645156 -307 331 C-306.04543055 333.74809472 -306.04543055 333.74809472 -304.75390625 336.53125 C-293.86524289 361.75665345 -287.32648836 389.64273928 -285 417 C-284.9167749 417.96164062 -284.8335498 418.92328125 -284.74780273 419.9140625 C-283.97379032 429.61185979 -283.71858183 439.27605671 -283.6875 449 C-283.68307388 450.23107986 -283.68307388 450.23107986 -283.67855835 451.48703003 C-283.66357936 469.98071521 -285.6304189 487.89690255 -289.38671875 506.02734375 C-289.59901123 507.054646 -289.81130371 508.08194824 -290.0300293 509.14038086 C-291.75754046 514.23334292 -295.07742338 517.82605945 -299.88647461 520.27197266 C-311.49630811 524.27110902 -325.66594904 518.34418298 -336.9375 515.3125 C-339.97997767 514.50796014 -343.02353556 513.7076181 -346.06729126 512.90792847 C-348.07900975 512.37903558 -350.09022341 511.84821871 -352.10092163 511.31546021 C-359.66397962 509.319815 -367.25428541 507.46699282 -374.87864685 505.72029114 C-393.83492284 501.32721952 -393.83492284 501.32721952 -399 495 C-402.26207997 489.5826172 -403.30202505 483.16455633 -402 477 C-400.44213867 474.5090332 -400.44213867 474.5090332 -398.41796875 471.92578125 C-394.06913699 466.17027246 -390.3051967 460.19922538 -386.625 454 C-385.97797119 452.91420654 -385.33094238 451.82841309 -384.66430664 450.7097168 C-376.48547735 436.8791732 -369.00676818 422.91394727 -363 408 C-362.48265152 406.75354035 -361.96439666 405.50745658 -361.4453125 404.26171875 C-354.90477133 388.42555237 -350.38132502 372.20139445 -347.875 355.25 C-347.70033203 354.08041748 -347.52566406 352.91083496 -347.34570312 351.70581055 C-346.26780744 344.05987521 -345.68842585 336.5277402 -345.5 328.8125 C-345.01812933 310.55428433 -341.75446748 293.12879455 -335.67431641 275.91552734 C-335.10639662 274.30224037 -334.57087696 272.67760044 -334.04296875 271.05078125 C-329.12998494 256.40156469 -321.79782776 242.65181335 -313 230 C-312.35417969 229.06027344 -311.70835937 228.12054688 -311.04296875 227.15234375 C-305.80059499 219.73187579 -299.93748347 212.86521527 -294 206 C-297.03630587 204.40068026 -300.09704735 203.18800822 -303.33203125 202.046875 C-304.36980713 201.67812256 -305.40758301 201.30937012 -306.47680664 200.92944336 C-308.12797485 200.3456189 -308.12797485 200.3456189 -309.8125 199.75 C-316.78480179 197.2678467 -323.72488254 194.77089628 -330.5625 191.9375 C-338.09281292 188.85300111 -345.79494734 186.32994018 -353.52758789 183.80249023 C-358.43414447 182.19844694 -363.30488265 180.55586132 -368.12524414 178.70825195 C-370.07262149 177.9725648 -372.03253296 177.28546009 -374 176.60546875 C-385.17294481 172.68711234 -393.65245749 168.49163874 -400 158 C-403.21963681 151.28601335 -402.93701096 143.42320475 -401 136.3125 C-397.92481272 128.3344198 -391.59507638 122.61587292 -384 119 C-380.76739177 117.71327067 -377.48837304 116.59780728 -374.1875 115.5 C-372.38876258 114.88705857 -370.59057615 114.27249761 -368.79296875 113.65625 C-367.9939917 113.38619141 -367.19501465 113.11613281 -366.37182617 112.83789062 C-363.11729968 111.6881701 -359.93314994 110.38423821 -356.7421875 109.0703125 C-352.9039908 107.57221293 -349.01650415 106.22755589 -345.125 104.875 C-320.44121086 96.28983203 -295.88972037 87.34112778 -271.3347168 78.39575195 C-258.07329551 73.56552184 -244.80378343 68.75881336 -231.52172852 63.9855957 C-217.98703458 59.12134939 -204.48106439 54.1852341 -191.00439453 49.16259766 C-177.96438118 44.30279622 -164.91588763 39.50257411 -151.76171875 34.95898438 C-145.74950968 32.87129367 -139.74943584 30.74906088 -133.75 28.625 C-133.08580048 28.38995758 -132.42160095 28.15491516 -131.73727417 27.91275024 C-121.78534706 24.38702071 -111.87572517 20.76140589 -102.01269531 16.99267578 C-93.43397234 13.72838575 -84.73293924 10.88237045 -76 8.0625 C-71.93120554 6.71328987 -68.00054756 5.19217024 -64.0625 3.5 C-43.21842829 -5.33963251 -21.62458513 -6.80773976 0 0 Z " fill="#010242" transform="translate(460,67)"/>
<path d="M0 0 C0.10957031 1.19109375 0.21914063 2.3821875 0.33203125 3.609375 C1.416886 15.26104232 2.62311565 26.89574886 3.89160156 38.52880859 C4.69607523 45.97171753 5.41605956 53.41682371 6.0625 60.875 C6.66369362 67.78195094 7.46530773 74.60837008 8.5078125 81.46484375 C9.07406631 85.53198421 9.48522522 89.60032506 9.875 93.6875 C10.71742623 102.51454736 11.711021 111.32025083 12.73260498 120.12792969 C19.50991153 178.66554205 19.50991153 178.66554205 9.375 192.0625 C-24.87222854 232.3533571 -89.98600129 245.36725344 -139.828125 251.5703125 C-141.68435261 251.8217719 -143.53743312 252.1118246 -145.37133789 252.4934082 C-201.6488177 263.33911923 -272.57766238 257.68953321 -327.6875 241.6875 C-328.42822754 241.47585205 -329.16895508 241.2642041 -329.93212891 241.04614258 C-331.49420762 240.59762008 -333.05540718 240.1460247 -334.61572266 239.69140625 C-337.03586481 238.98959972 -339.46091292 238.30694184 -341.88671875 237.625 C-359.7046186 232.53892365 -376.66826903 225.75896756 -393 217 C-394.07894531 216.42507813 -395.15789062 215.85015625 -396.26953125 215.2578125 C-403.51070316 211.22357809 -409.71168696 206.37437181 -416 201 C-416.845625 200.35546875 -417.69125 199.7109375 -418.5625 199.046875 C-425.66273026 193.08450215 -431.40979917 184.18030833 -433 175 C-433.12440884 168.94543653 -432.60671519 163.01896064 -432 157 C-431.86985023 155.55349676 -431.74092395 154.10688287 -431.61328125 152.66015625 C-430.56330419 141.22483721 -429.20768599 129.81716966 -427.9324646 118.40518188 C-426.42110988 104.87789158 -424.94519802 91.34702147 -423.5 77.8125 C-423.39476013 76.82803894 -423.28952026 75.84357788 -423.18109131 74.82928467 C-422.02544474 63.99501498 -420.90392218 53.15846365 -419.86328125 42.3125 C-419.77339935 41.37742111 -419.68351746 40.44234222 -419.59091187 39.47892761 C-419.16817009 35.06771225 -418.75131172 30.6560517 -418.34375 26.2434082 C-417.54849911 17.75946528 -416.5814818 9.38257661 -415 1 C-408.66693975 2.13090362 -402.85375291 4.08963867 -396.87133789 6.39819336 C-389.63693062 9.17810057 -382.31638051 11.69363113 -374.98193359 14.19580078 C-370.99435351 15.56582183 -367.0410412 16.93115571 -363.1796875 18.62890625 C-360.2006525 19.91347785 -357.30464796 20.86534757 -354.1875 21.75 C-347.84099751 23.65102609 -341.73731649 25.99379485 -335.5847168 28.43261719 C-331.4214644 30.0765975 -327.26310566 31.62823784 -323 33 C-318.0855678 34.58638951 -313.30035301 36.41576509 -308.5 38.3125 C-299.54208724 41.84494381 -290.48277275 45.0361126 -281.38134766 48.17675781 C-277.79146086 49.41779721 -274.20758817 50.67557342 -270.625 51.9375 C-269.94961182 52.17388184 -269.27422363 52.41026367 -268.57836914 52.65380859 C-264.5584061 54.06831815 -260.56298926 55.5361451 -256.578125 57.046875 C-217.98204454 71.62303664 -184.50680377 66.32226357 -146.90771484 52.43457031 C-141.92050238 50.59594579 -136.90038006 48.85604821 -131.875 47.125 C-125.56061131 44.92880416 -119.29297401 42.62968063 -113.04296875 40.25708008 C-108.0152766 38.35738402 -102.9535211 36.57125961 -97.875 34.8125 C-89.19456324 31.8018843 -80.56116008 28.66867315 -71.9375 25.5 C-71.28889008 25.26170471 -70.64028015 25.02340942 -69.97201538 24.77789307 C-63.79667066 22.50811685 -57.62380877 20.23163659 -51.453125 17.94921875 C-49.86460864 17.36191071 -48.27606847 16.77466708 -46.6875 16.1875 C-45.94177734 15.91164063 -45.19605469 15.63578125 -44.42773438 15.3515625 C-38.76432321 13.26371546 -33.0723379 11.26401134 -27.37133789 9.28149414 C-21.11368415 7.08493298 -14.94595051 4.67118377 -8.79858398 2.18359375 C-3.32045611 0 -3.32045611 0 0 0 Z " fill="#010242" transform="translate(641,333)"/>
<path d="M0 0 C4.80684462 3.35246599 9.11904433 7.35713298 11 13 C11.74120847 19.84098967 11.02160704 25.31513572 7 31 C3.87194475 34.72522943 0.76824279 36.1588434 -3.75 37.875 C-4.40323242 38.12620605 -5.05646484 38.37741211 -5.72949219 38.63623047 C-7.81569863 39.43506583 -9.90737196 40.21816019 -12 41 C-13.38563991 41.52545334 -14.77105844 42.05149085 -16.15625 42.578125 C-22.91778928 45.13880298 -29.7062227 47.62201353 -36.5078125 50.07421875 C-38.94482895 50.97950543 -41.34598532 51.94830707 -43.75 52.9375 C-47.91948722 54.63446141 -52.15627821 56.05431957 -56.4375 57.4375 C-60.8709258 58.87608123 -65.15975193 60.43573836 -69.375 62.4375 C-75.23944406 65.21402882 -81.28719241 67.28288206 -87.41015625 69.40234375 C-99.23060799 73.49452587 -110.9213991 77.9390209 -122.56420898 82.50878906 C-128.30725221 84.75438063 -134.09266616 86.84093472 -139.91015625 88.88671875 C-142.61794572 89.86234454 -145.27705301 90.90349394 -147.9375 92 C-152.08453987 93.69713843 -156.30348445 95.11497991 -160.5625 96.5 C-165.43007077 98.08583133 -170.15728117 99.79096718 -174.77734375 102.0078125 C-177.41734516 103.18630171 -180.12026766 104.16468436 -182.82983398 105.16992188 C-202.21196563 112.58349456 -222.34210867 121.98401686 -237 137 C-238.57624063 138.38312506 -240.15964562 139.75812679 -241.75 141.125 C-247.14227236 145.95724408 -251.60554178 151.260137 -256 157 C-256.6909375 157.89847656 -257.381875 158.79695312 -258.09375 159.72265625 C-274.24620046 181.31102753 -291.22484196 217.10476374 -288 245 C-287.04543055 247.74809472 -287.04543055 247.74809472 -285.75390625 250.53125 C-274.86524289 275.75665345 -268.32648836 303.64273928 -266 331 C-265.9167749 331.96164062 -265.8335498 332.92328125 -265.74780273 333.9140625 C-264.97379032 343.61185979 -264.71858183 353.27605671 -264.6875 363 C-264.68307388 364.23107986 -264.68307388 364.23107986 -264.67855835 365.48703003 C-264.66357936 383.98071521 -266.6304189 401.89690255 -270.38671875 420.02734375 C-270.59901123 421.054646 -270.81130371 422.08194824 -271.0300293 423.14038086 C-272.75754046 428.23334292 -276.07742338 431.82605945 -280.88647461 434.27197266 C-292.49630811 438.27110902 -306.66594904 432.34418298 -317.9375 429.3125 C-320.97997767 428.50796014 -324.02353556 427.7076181 -327.06729126 426.90792847 C-329.07900975 426.37903558 -331.09022341 425.84821871 -333.10092163 425.31546021 C-340.66397962 423.319815 -348.25428541 421.46699282 -355.87864685 419.72029114 C-374.83492284 415.32721952 -374.83492284 415.32721952 -380 409 C-383.26207997 403.5826172 -384.30202505 397.16455633 -383 391 C-381.44213867 388.5090332 -381.44213867 388.5090332 -379.41796875 385.92578125 C-375.06913699 380.17027246 -371.3051967 374.19922538 -367.625 368 C-366.97797119 366.91420654 -366.33094238 365.82841309 -365.66430664 364.7097168 C-357.48547735 350.8791732 -350.00676818 336.91394727 -344 322 C-343.48265152 320.75354035 -342.96439666 319.50745658 -342.4453125 318.26171875 C-335.90477133 302.42555237 -331.38132502 286.20139445 -328.875 269.25 C-328.70033203 268.08041748 -328.52566406 266.91083496 -328.34570312 265.70581055 C-327.26780744 258.05987521 -326.68842585 250.5277402 -326.5 242.8125 C-326.01812933 224.55428433 -322.75446748 207.12879455 -316.67431641 189.91552734 C-316.10639662 188.30224037 -315.57087696 186.67760044 -315.04296875 185.05078125 C-310.12945781 170.39999293 -302.79521666 156.654988 -294 144 C-293.04867187 142.6078125 -293.04867187 142.6078125 -292.078125 141.1875 C-282.00337431 126.86636678 -269.84534624 112.78376967 -256 102 C-255.34 102 -254.68 102 -254 102 C-253.67 101.01 -253.34 100.02 -253 99 C-252.01 98.67 -251.02 98.34 -250 98 C-249.5771875 97.57332031 -249.154375 97.14664063 -248.71875 96.70703125 C-246.2671431 94.27213985 -243.40285233 92.53012249 -240.5 90.6875 C-239.88068604 90.29159668 -239.26137207 89.89569336 -238.62329102 89.48779297 C-233.98672996 86.5539844 -229.25756219 83.84759056 -224.40234375 81.2890625 C-221.97046368 80.02185372 -221.97046368 80.02185372 -219.625 78.4921875 C-216.53047085 76.73309504 -213.43247756 75.64162106 -210.0625 74.5 C-205.4994903 72.95086069 -201.2864694 71.1971149 -197 69 C-195.73914171 68.49516892 -194.46911242 68.01204161 -193.1875 67.5625 C-190.31995851 66.52369252 -187.57353562 65.3570515 -184.8125 64.0625 C-181.28800732 62.46808665 -177.77324391 61.27834683 -174.0625 60.1875 C-166.2867589 57.87652799 -158.82417438 54.87989157 -151.28857422 51.89794922 C-147.62218767 50.459399 -143.93794507 49.06966903 -140.25 47.6875 C-139.60699951 47.44531738 -138.96399902 47.20313477 -138.30151367 46.95361328 C-134.5591674 45.55276672 -130.79037149 44.26345716 -127 43 C-122.03139768 41.11998831 -117.14331535 39.08431487 -112.3125 36.875 C-108.61007384 35.20502456 -104.9142295 34.09873109 -101 33 C-99.47256044 32.41273533 -97.95226359 31.80672746 -96.4375 31.1875 C-88.60330245 27.98694368 -80.62049504 25.14713992 -72.5625 22.5625 C-69.74272014 21.64740163 -66.99988409 20.60730566 -64.2578125 19.484375 C-63.2531897 19.07336548 -63.2531897 19.07336548 -62.22827148 18.65405273 C-60.89170133 18.10289143 -59.55774492 17.54533831 -58.22680664 16.98071289 C-54.85579213 15.58700839 -52.71736164 15 -49 15 C-49 14.34 -49 13.68 -49 13 C-48.24976563 12.75765625 -47.49953125 12.5153125 -46.7265625 12.265625 C-40.92451225 10.3657093 -35.24000582 8.33071667 -29.59375 6.01171875 C-25.6056428 4.4561167 -21.54075146 3.14913481 -17.46875 1.83203125 C-11.37512473 -0.22167474 -6.54986509 -1.29235006 0 0 Z " fill="#4C30FD" transform="translate(441,153)"/>
<path d="M0 0 C1.62660725 2.92345723 2.37265886 5.40204686 2.81640625 8.7109375 C2.94080078 9.62746094 3.06519531 10.54398437 3.19335938 11.48828125 C3.37608398 12.91720703 3.37608398 12.91720703 3.5625 14.375 C3.68818359 15.28894531 3.81386719 16.20289063 3.94335938 17.14453125 C5.742794 30.7297916 6.2640099 44.31297628 6.3125 58 C6.31644775 58.81639954 6.32039551 59.63279907 6.32446289 60.47393799 C6.36051478 76.58247098 4.70979206 92.12681644 2 108 C1.67 108 1.34 108 1 108 C0.91662796 102.64632401 1.21289934 97.50198572 1.875 92.1875 C3.65117239 76.86116311 4.19667369 61.40139262 5 46 C4.34 46 3.68 46 3 46 C2.98018066 45.37134033 2.96036133 44.74268066 2.93994141 44.0949707 C2.43452585 28.34929766 2.43452585 28.34929766 0.41015625 12.75 C-0.22433103 8.49591386 -0.1742649 4.28885274 0 0 Z " fill="#634EE3" transform="translate(170,458)"/>
<path d="M0 0 C0.33 0 0.66 0 1 0 C1.02749766 1.37488287 1.0466164 2.74993391 1.0625 4.125 C1.07410156 4.89070313 1.08570312 5.65640625 1.09765625 6.4453125 C1 9 1 9 0.52075195 11.67260742 C-0.05944236 15.37981243 -0.27356427 19.05034201 -0.4296875 22.79296875 C-0.50114979 24.3173316 -0.57327718 25.84166338 -0.64599609 27.3659668 C-0.68295593 28.15450043 -0.71991577 28.94303406 -0.75799561 29.75546265 C-2.56098454 67.23214415 -2.56098454 67.23214415 -9 79 C-10.50112866 75.09706548 -9.30753199 72.86686509 -8 69 C-7.17446854 64.89601661 -6.55301692 60.76508748 -5.9375 56.625 C-5.75904541 55.43269775 -5.58059082 54.24039551 -5.39672852 53.01196289 C-4.14366277 44.15489311 -3.58377269 35.41787871 -3.36523438 26.48291016 C-3.10378108 17.47645229 -1.77096287 8.82139994 0 0 Z " fill="#5A43E1" transform="translate(118,366)"/>
<path d="M0 0 C1.52270508 1.25756836 1.52270508 1.25756836 3 3 C2.72165442 5.97201249 2.30041241 8.65963374 1.6875 11.5625 C1.38274221 13.19824409 1.08321141 14.83497116 0.7890625 16.47265625 C0.64758789 17.25785645 0.50611328 18.04305664 0.36035156 18.85205078 C-0.91992188 26.48338257 -0.07962584 31.93637662 3.125 38.96875 C4 41 4 41 4 43 C3.34 43 2.68 43 2 43 C2 41.68 2 40.36 2 39 C1.34 39 0.68 39 0 39 C-0.33 39.66 -0.66 40.32 -1 41 C-1.90711358 35.55731854 -2.11014176 30.19990784 -2.125 24.6875 C-2.12951172 23.98173828 -2.13402344 23.27597656 -2.13867188 22.54882812 C-2.1296968 19.42849331 -1.99404296 16.98212889 -1 14 C-0.9328189 11.4849074 -1.00180675 8.98763267 -1.0625 6.47265625 C-1.00360788 4.14273671 -0.66092839 2.22546982 0 0 Z " fill="#563EE4" transform="translate(153,367)"/>
<path d="M0 0 C1.18851562 0.00902344 2.37703125 0.01804688 3.6015625 0.02734375 C4.51679688 0.03894531 5.43203125 0.05054688 6.375 0.0625 C6.87 1.0525 6.87 1.0525 7.375 2.0625 C6.6015625 2.01609375 5.828125 1.9696875 5.03125 1.921875 C-1.12417485 1.7085682 -5.42395034 1.89562895 -10.75 5.046875 C-12.78365397 6.14843757 -14.62478046 6.67458231 -16.875 7.1875 C-20.44804953 7.85327444 -20.44804953 7.85327444 -22.75 9.1875 C-25.39542093 10.42202977 -27.74920987 10.19321773 -30.625 10.0625 C-29.625 8.0625 -29.625 8.0625 -27.61547852 7.20874023 C-26.32275024 6.79410522 -26.32275024 6.79410522 -25.00390625 6.37109375 C-24.06869141 6.06623047 -23.13347656 5.76136719 -22.16992188 5.44726562 C-21.18572266 5.13466797 -20.20152344 4.82207031 -19.1875 4.5 C-17.25093034 3.87484832 -15.31471445 3.24859937 -13.37890625 2.62109375 C-12.51595947 2.34579834 -11.6530127 2.07050293 -10.76391602 1.78686523 C-6.7983161 0.44387528 -4.32991941 -0.04245019 0 0 Z " fill="#3C2ACB" transform="translate(434.625,152.9375)"/>
<path d="M0 0 C6.93 0.495 6.93 0.495 14 1 C14 1.66 14 2.32 14 3 C15.7015625 2.9690625 15.7015625 2.9690625 17.4375 2.9375 C21 3 21 3 22 4 C23.34747084 4.23075082 24.70377565 4.41153063 26.0625 4.5625 C27.361875 4.706875 28.66125 4.85125 30 5 C30 5.66 30 6.32 30 7 C31.98 7 33.96 7 36 7 C33.84994152 8.2936461 32.54561993 9.0504894 30.00805664 8.81567383 C29.31574951 8.61482178 28.62344238 8.41396973 27.91015625 8.20703125 C27.1313208 7.99006592 26.35248535 7.77310059 25.55004883 7.54956055 C24.72915771 7.30633057 23.9082666 7.06310059 23.0625 6.8125 C21.35982259 6.33434081 19.65669403 5.85778528 17.953125 5.3828125 C17.11587891 5.14594727 16.27863281 4.90908203 15.41601562 4.66503906 C10.32078736 3.26251261 5.15949005 2.13934879 0 1 C0 0.67 0 0.34 0 0 Z " fill="#614AE4" transform="translate(86,572)"/>
<path d="M0 0 C0.66 0 1.32 0 2 0 C1.405854 3.63591518 0.38761387 6.52172529 -1.25 9.8125 C-3.82096321 15.27486531 -5.61759508 20.82230849 -7.29980469 26.60473633 C-8.24422053 29.80530032 -9.13120217 32.19680325 -11 35 C-10.48015675 28.47596723 -9.20780603 22.89436583 -7 16.75 C-4.58120576 9.99130607 -4.58120576 9.99130607 -3 3 C-2.01 3 -1.02 3 0 3 C0 2.01 0 1.02 0 0 Z " fill="#5D47E2" transform="translate(167,333)"/>
<path d="M0 0 C0.33 0 0.66 0 1 0 C1 1.98 1 3.96 1 6 C0.34 6 -0.32 6 -1 6 C-1.03738281 6.59167969 -1.07476562 7.18335938 -1.11328125 7.79296875 C-1.50796765 12.53694453 -1.89543988 16.17900293 -5 20 C-5.99 20.33 -6.98 20.66 -8 21 C-6.75060914 16.10655245 -5.05595133 11.67996839 -2.953125 7.08984375 C-1.88880631 4.75619417 -0.92583281 2.39173476 0 0 Z " fill="#5D47E3" transform="translate(98,472)"/>
<path d="M0 0 C-2.27519443 3.41279164 -3.19261382 3.81596264 -7 5 C-8.92903132 5.2759478 -10.8689032 5.48449903 -12.8125 5.625 C-13.78832031 5.69976562 -14.76414062 5.77453125 -15.76953125 5.8515625 C-16.87361328 5.92503906 -16.87361328 5.92503906 -18 6 C-15.43461521 3.43461521 -12.93954104 2.62642121 -9.5625 1.3125 C-8.40878906 0.85488281 -7.25507813 0.39726562 -6.06640625 -0.07421875 C-3 -1 -3 -1 0 0 Z " fill="#0F076D" transform="translate(340,228)"/>
<path d="M0 0 C-4.17949673 2.78633115 -6.93375326 4 -12 4 C-12 4.66 -12 5.32 -12 6 C-14.97 6.66 -17.94 7.32 -21 8 C-20.67 7.01 -20.34 6.02 -20 5 C-17.69 5 -15.38 5 -13 5 C-13 4.01 -13 3.02 -13 2 C-4.57142857 -0.28571429 -4.57142857 -0.28571429 0 0 Z " fill="#090466" transform="translate(404,162)"/>
<path d="M0 0 C0.66 0 1.32 0 2 0 C1.73510924 7.827522 0.75854433 14.07728579 -3 21 C-4.21749909 16.93303494 -3.39443804 15.03653117 -2 11 C-1.24932167 7.34737054 -0.61512564 3.67766604 0 0 Z " fill="#6D58E6" transform="translate(112,424)"/>
<path d="M0 0 C0.33 0 0.66 0 1 0 C1.37480651 5.12235564 0.10480209 8.36943541 -2 13 C-2.69140522 15.77888613 -2.69140522 15.77888613 -3 18 C-3.66 18 -4.32 18 -5 18 C-5 18.66 -5 19.32 -5 20 C-5.66 19.67 -6.32 19.34 -7 19 C-4.69 12.73 -2.38 6.46 0 0 Z " fill="#5A42E3" transform="translate(106,451)"/>
<path d="M0 0 C-4.78011721 5.17846031 -8.64077203 5.64441431 -15.5859375 5.95703125 C-16.38257813 5.97121094 -17.17921875 5.98539063 -18 6 C-14.87754953 3.91836635 -11.92965119 2.67424387 -8.4375 1.3125 C-7.28121094 0.85488281 -6.12492187 0.39726562 -4.93359375 -0.07421875 C-2 -1 -2 -1 0 0 Z " fill="#0C0567" transform="translate(303,242)"/>
<path d="M0 0 C0 0.66 0 1.32 0 2 C-10.37357631 6.59225513 -10.37357631 6.59225513 -16 6 C-14.54986969 3.09973937 -12.69479373 2.95045604 -9.6875 1.875 C-8.72199219 1.52179688 -7.75648438 1.16859375 -6.76171875 0.8046875 C-4 0 -4 0 0 0 Z " fill="#0F086E" transform="translate(320,235)"/>
<path d="M0 0 C1.65 0 3.3 0 5 0 C-0.55575119 5.07264239 -8.88314841 6.31783508 -16 8 C-15.67 7.01 -15.34 6.02 -15 5 C-13.02 5 -11.04 5 -9 5 C-9 4.34 -9 3.68 -9 3 C-4.545 2.505 -4.545 2.505 0 2 C0 1.34 0 0.68 0 0 Z " fill="#0B0567" transform="translate(372,172)"/>
<path d="M0 0 C0 0.66 0 1.32 0 2 C4.29 2 8.58 2 13 2 C11 4 11 4 8.4609375 4.265625 C2.28318717 4.23434525 -3.08789739 3.81910849 -9 2 C-9 1.67 -9 1.34 -9 1 C-2.25 0 -2.25 0 0 0 Z " fill="#5B46DF" transform="translate(147,584)"/>
<path d="M0 0 C2.2580605 3.38709075 2.79994908 5.96642159 3.625 9.9375 C3.88539063 11.16339844 4.14578125 12.38929688 4.4140625 13.65234375 C5 17 5 17 5 21 C4.34 21 3.68 21 3 21 C2.49576443 18.25071558 1.99646574 15.50068857 1.5 12.75 C1.35691406 11.97269531 1.21382812 11.19539063 1.06640625 10.39453125 C0.93105469 9.64042969 0.79570312 8.88632812 0.65625 8.109375 C0.46772461 7.07248535 0.46772461 7.07248535 0.27539062 6.01464844 C0 4 0 4 0 0 Z " fill="#6D59E6" transform="translate(165,435)"/>
<path d="M0 0 C0.33 1.32 0.66 2.64 1 4 C1.66 4.33 2.32 4.66 3 5 C1.02 6.98 -0.96 8.96 -3 11 C-3.66 10.67 -4.32 10.34 -5 10 C-3.35 6.7 -1.7 3.4 0 0 Z " fill="#EAE7FB" transform="translate(173,326)"/>
<path d="M0 0 C0.33 0.99 0.66 1.98 1 3 C-1.10889262 6.82724957 -2.79609368 9.49860488 -7 11 C-5.5140084 6.40693504 -3.14985318 3.56430755 0 0 Z " fill="#5F49E2" transform="translate(156,285)"/>
<path d="M0 0 C-0.804375 0.45375 -1.60875 0.9075 -2.4375 1.375 C-5.08856572 2.74725665 -5.08856572 2.74725665 -6 5 C-6.99 4.67 -7.98 4.34 -9 4 C-12.15020361 4.88319294 -12.15020361 4.88319294 -15 6 C-15.33 5.34 -15.66 4.68 -16 4 C-13.71144298 3.13656269 -11.4198072 2.2840189 -9.125 1.4375 C-8.47402344 1.19064453 -7.82304687 0.94378906 -7.15234375 0.68945312 C-2.2265625 -1.11328125 -2.2265625 -1.11328125 0 0 Z " fill="#252456" transform="translate(203,142)"/>
<path d="M0 0 C0.99 0.33 1.98 0.66 3 1 C0.69 3.64 -1.62 6.28 -4 9 C-4.66 8.34 -5.32 7.68 -6 7 C-6 5.68 -6 4.36 -6 3 C-3.525 3.495 -3.525 3.495 -1 4 C-0.67 2.68 -0.34 1.36 0 0 Z " fill="#563FE7" transform="translate(192,297)"/>
<path d="M0 0 C-4.80061213 3.64184368 -10.19935017 4.13650572 -16 5 C-15 3 -15 3 -12.12890625 1.89453125 C-10.95199219 1.53746094 -9.77507812 1.18039063 -8.5625 0.8125 C-7.38816406 0.44769531 -6.21382813 0.08289063 -5.00390625 -0.29296875 C-2 -1 -2 -1 0 0 Z " fill="#3A29C6" transform="translate(340,188)"/>
<path d="M0 0 C0.33 0 0.66 0 1 0 C1.19406478 1.64507218 1.38007935 3.29109594 1.5625 4.9375 C1.66691406 5.85402344 1.77132812 6.77054688 1.87890625 7.71484375 C1.91886719 8.46894531 1.95882812 9.22304688 2 10 C1.67 10.33 1.34 10.66 1 11 C0.76924918 12.34747084 0.58846937 13.70377565 0.4375 15.0625 C0.293125 16.361875 0.14875 17.66125 0 19 C-0.66 19 -1.32 19 -2 19 C-1.34 12.73 -0.68 6.46 0 0 Z " fill="#DCD4FD" transform="translate(174,546)"/>
<path d="M0 0 C0.33 0 0.66 0 1 0 C1.43702768 4.45768233 1.51445113 6.34650802 -1.3125 9.9375 C-4 12 -4 12 -7 12 C-6.57847656 11.38511719 -6.15695312 10.77023438 -5.72265625 10.13671875 C-4.90087891 8.92435547 -4.90087891 8.92435547 -4.0625 7.6875 C-3.51722656 6.88699219 -2.97195313 6.08648437 -2.41015625 5.26171875 C-0.86162674 2.9741857 -0.86162674 2.9741857 0 0 Z " fill="#0E076C" transform="translate(451,176)"/>
<path d="M0 0 C6.75 1.75 6.75 1.75 9 4 C11.06874034 4.6425235 11.06874034 4.6425235 13 5 C13 5.66 13 6.32 13 7 C7.0217942 5.88541926 4.05387741 4.81397943 0 0 Z " fill="#5E48DF" transform="translate(63,563)"/>
<path d="M0 0 C0.33 0 0.66 0 1 0 C1.17835515 4.54805635 0.99785435 7.8794254 -1 12 C-1.33 12 -1.66 12 -2 12 C-2.05395478 10.37536158 -2.09277195 8.75021459 -2.125 7.125 C-2.14820313 6.22007812 -2.17140625 5.31515625 -2.1953125 4.3828125 C-2 2 -2 2 0 0 Z " fill="#735DE8" transform="translate(60,542)"/>
<path d="M0 0 C0.99 0.33 1.98 0.66 3 1 C1.02 4.63 -0.96 8.26 -3 12 C-3.66 11.01 -4.32 10.02 -5 9 C-4.34 9 -3.68 9 -3 9 C-2.01 6.03 -1.02 3.06 0 0 Z " fill="#E4E0FD" transform="translate(85,496)"/>
<path d="M0 0 C0.66 0 1.32 0 2 0 C1.40380045 4.86896303 0.43023178 9.32790951 -1 14 C-1.66 14 -2.32 14 -3 14 C-2.48594831 9.03083364 -1.76615118 4.70973649 0 0 Z " fill="#644FE4" transform="translate(122,350)"/>
<path d="M0 0 C1.98 0 3.96 0 6 0 C3.30932731 1.79378179 0.91421743 2.97313958 -2.0625 4.1875 C-2.94035156 4.55230469 -3.81820312 4.91710937 -4.72265625 5.29296875 C-7 6 -7 6 -9 5 C-8 3 -8 3 -5.0625 1.8125 C-2 1 -2 1 0 2 C0 1.34 0 0.68 0 0 Z " fill="#201F4F" transform="translate(549,324)"/>
<path d="M0 0 C1.28163292 3.84489875 0.69835501 5.37169613 -1 9 C-3.625 10.375 -3.625 10.375 -6 11 C-4.54955729 6.89041233 -2.48889248 3.56741255 0 0 Z " fill="#DEDAFA" transform="translate(180,315)"/>
<path d="M0 0 C-2.36313608 1.44413871 -4.69514387 2.85192702 -7.1875 4.0625 C-9.17822239 4.97608662 -9.17822239 4.97608662 -11 7 C-11.66 5.68 -12.32 4.36 -13 3 C-11.21189234 2.30329584 -9.41937948 1.61788811 -7.625 0.9375 C-6.62726563 0.55464844 -5.62953125 0.17179688 -4.6015625 -0.22265625 C-2 -1 -2 -1 0 0 Z " fill="#292958" transform="translate(150,161)"/>
<path d="M0 0 C-3.3 2.64 -6.6 5.28 -10 8 C-10.33 7.01 -10.66 6.02 -11 5 C-9.68 4.67 -8.36 4.34 -7 4 C-6.8453125 3.0409375 -6.8453125 3.0409375 -6.6875 2.0625 C-6.460625 1.381875 -6.23375 0.70125 -6 0 C-3 -1 -3 -1 0 0 Z " fill="#0B0568" transform="translate(187,255)"/>
<path d="M0 0 C-0.33 1.32 -0.66 2.64 -1 4 C-3.8125 4.625 -3.8125 4.625 -7 5 C-7.99 4.34 -8.98 3.68 -10 3 C-8.70990357 2.49596232 -7.41786211 1.99690074 -6.125 1.5 C-5.04605469 1.08234375 -5.04605469 1.08234375 -3.9453125 0.65625 C-2 0 -2 0 0 0 Z " fill="#432FE0" transform="translate(286,207)"/>
<path d="M0 0 C-1.74468372 0.70088156 -3.49601161 1.38524009 -5.25 2.0625 C-6.22453125 2.44535156 -7.1990625 2.82820312 -8.203125 3.22265625 C-11.04007395 4.01113787 -12.29409552 4.02437812 -15 3 C-4.8 -1.6 -4.8 -1.6 0 0 Z " fill="#402FD7" transform="translate(413,200)"/>
<path d="M0 0 C4.875 3.625 4.875 3.625 6 7 C6.06802967 8.72795352 6.08495645 10.45835365 6.0625 12.1875 C6.05347656 13.08855469 6.04445313 13.98960937 6.03515625 14.91796875 C6.02355469 15.60503906 6.01195312 16.29210937 6 17 C5.67 17 5.34 17 5 17 C4.96132813 16.12988281 4.96132813 16.12988281 4.921875 15.2421875 C4.51016897 9.5718727 3.41321793 6.51425597 0 2 C0 1.34 0 0.68 0 0 Z " fill="#3C2CCC" transform="translate(446,159)"/>
<path d="M0 0 C0.33 0.66 0.66 1.32 1 2 C4.02934491 2.65772428 4.02934491 2.65772428 7 3 C7 3.66 7 4.32 7 5 C8.32 5.33 9.64 5.66 11 6 C9 7 9 7 6.3984375 6.22265625 C4.90183594 5.64837891 4.90183594 5.64837891 3.375 5.0625 C2.37210937 4.68222656 1.36921875 4.30195313 0.3359375 3.91015625 C-0.43492187 3.60980469 -1.20578125 3.30945313 -2 3 C-1.34 2.67 -0.68 2.34 0 2 C0 1.34 0 0.68 0 0 Z " fill="#363662" transform="translate(255,301)"/>
<path d="M0 0 C1.32 0 2.64 0 4 0 C3.44271087 3.34373475 2.64826111 6.03312999 1 9 C0.67 9 0.34 9 0 9 C0 6.03 0 3.06 0 0 Z " fill="#0C0D3F" transform="translate(804,217)"/>
<path d="M0 0 C-3.3730619 2.96829447 -6.62968884 4.06350475 -11 5 C-13.21875 4.546875 -13.21875 4.546875 -15 4 C-13.06767179 3.13419713 -11.12892806 2.28270059 -9.1875 1.4375 C-8.10855469 0.96183594 -7.02960938 0.48617187 -5.91796875 -0.00390625 C-3 -1 -3 -1 0 0 Z " fill="#3424BC" transform="translate(264,216)"/>
<path d="M0 0 C0 0.33 0 0.66 0 1 C-0.64066406 1.12117187 -1.28132813 1.24234375 -1.94140625 1.3671875 C-7.04928933 2.35679227 -12.02250269 3.48510951 -17 5 C-17 4.34 -17 3.68 -17 3 C-11.06108578 0.4084738 -6.45892714 -0.40368295 0 0 Z " fill="#0F0673" transform="translate(436,152)"/>
<path d="M0 0 C0 0.66 0 1.32 0 2 C-4.22949995 4.41685712 -7.12335991 5.34833144 -12 5 C-11 3 -11 3 -9.00390625 2.1484375 C-8.19824219 1.89320313 -7.39257812 1.63796875 -6.5625 1.375 C-5.75941406 1.11460937 -4.95632813 0.85421875 -4.12890625 0.5859375 C-2 0 -2 0 0 0 Z " fill="#0F0876" transform="translate(268,254)"/>
<path d="M0 0 C0 0.66 0 1.32 0 2 C-3.6441774 4.4294516 -5.71241272 4.16179575 -10 4 C-9.67 3.34 -9.34 2.68 -9 2 C-2.88888889 0 -2.88888889 0 0 0 Z " fill="#3928C9" transform="translate(350,183)"/>
<path d="M0 0 C0 0.66 0 1.32 0 2 C-1.4117783 2.53394179 -2.82970244 3.05165104 -4.25 3.5625 C-5.03890625 3.85253906 -5.8278125 4.14257812 -6.640625 4.44140625 C-9.19103452 5.04522837 -10.55322229 4.8473932 -13 4 C-11.2097939 3.32942113 -9.41778511 2.6636531 -7.625 2 C-6.62726563 1.62875 -5.62953125 1.2575 -4.6015625 0.875 C-2 0 -2 0 0 0 Z " fill="#3E2CD1" transform="translate(388,169)"/>
<path d="M0 0 C2.31 0.66 4.62 1.32 7 2 C6.67 2.99 6.34 3.98 6 5 C3.9375 5.6875 3.9375 5.6875 2 6 C1.34 4.02 0.68 2.04 0 0 Z " fill="#E7EBED" transform="translate(299,320)"/>
<path d="M0 0 C-3.55639236 2.30119506 -6.94718288 3.77472971 -11 5 C-11.66 4.34 -12.32 3.68 -13 3 C-11.21189234 2.30329584 -9.41937948 1.61788811 -7.625 0.9375 C-6.62726563 0.55464844 -5.62953125 0.17179688 -4.6015625 -0.22265625 C-2 -1 -2 -1 0 0 Z " fill="#090565" transform="translate(373,216)"/>
<path d="M0 0 C-0.33 0.99 -0.66 1.98 -1 3 C-4.3 3.33 -7.6 3.66 -11 4 C-7.88789178 0.88789178 -4.34860953 0 0 0 Z " fill="#272752" transform="translate(245,126)"/>
<path d="M0 0 C0.33 0 0.66 0 1 0 C1.19622241 4.21878192 0.80230168 7.17010894 -1 11 C-1.66 11 -2.32 11 -3 11 C-2.44894091 7.0507432 -1.61064629 3.65079826 0 0 Z " fill="#624CE1" transform="translate(126,338)"/>
<path d="M0 0 C0.66 0.33 1.32 0.66 2 1 C0.68 3.64 -0.64 6.28 -2 9 C-2.66 8.67 -3.32 8.34 -4 8 C-2.87548273 5.0280615 -1.77706209 2.66559313 0 0 Z " fill="#644DE4" transform="translate(142,305)"/>
<path d="M0 0 C2.4375 0.8125 2.4375 0.8125 5 2 C5.33 2.99 5.66 3.98 6 5 C3.36 4.34 0.72 3.68 -2 3 C-1.34 2.67 -0.68 2.34 0 2 C0 1.34 0 0.68 0 0 Z " fill="#1F1F59" transform="translate(219,288)"/>
<path d="M0 0 C0.99 0.33 1.98 0.66 3 1 C3 1.66 3 2.32 3 3 C3.99 3.99 4.98 4.98 6 6 C3.03 5.01 0.06 4.02 -3 3 C-2.01 2.01 -1.02 1.02 0 0 Z " fill="#DDDFEA" transform="translate(517,84)"/>
<path d="M0 0 C0.99 0.66 1.98 1.32 3 2 C0.69 3.65 -1.62 5.3 -4 7 C-4.33 6.01 -4.66 5.02 -5 4 C-4.360625 3.71125 -3.72125 3.4225 -3.0625 3.125 C-0.84793921 2.17176549 -0.84793921 2.17176549 0 0 Z " fill="#0A0360" transform="translate(201,240)"/>
<path d="M0 0 C-1.33333333 0.66666667 -2.66666667 1.33333333 -4 2 C-4.680625 2.391875 -5.36125 2.78375 -6.0625 3.1875 C-8 4 -8 4 -11 3 C-10.67 2.34 -10.34 1.68 -10 1 C-6.6322481 0.06451336 -3.4815554 -0.09947301 0 0 Z " fill="#4731DE" transform="translate(341,226)"/>
<path d="M0 0 C1 4 1 4 0 6 C-2.5625 6.625 -2.5625 6.625 -5 7 C-3.35 4.69 -1.7 2.38 0 0 Z " fill="#E1DEFD" transform="translate(195,297)"/>
<path d="M0 0 C0.33 1.32 0.66 2.64 1 4 C-0.9375 6.25 -0.9375 6.25 -3 8 C-3.66 7.67 -4.32 7.34 -5 7 C-3.35 4.69 -1.7 2.38 0 0 Z " fill="#614DDF" transform="translate(148,296)"/>
<path d="M0 0 C-4.455 1.485 -4.455 1.485 -9 3 C-9.33 2.01 -9.66 1.02 -10 0 C-6.05523353 -0.80688405 -4.00001715 -1.00000429 0 0 Z " fill="#1C1D4A" transform="translate(665,285)"/>
<path d="M0 0 C0 0.99 0 1.98 0 3 C-1.8125 4.75 -1.8125 4.75 -4 6 C-4.99 5.67 -5.98 5.34 -7 5 C-4.69 3.35 -2.38 1.7 0 0 Z " fill="#0C0769" transform="translate(219,277)"/>
<path d="M0 0 C1.98 0 3.96 0 6 0 C2.79663178 2.83374881 0.21912747 3.5205537 -4 4 C-4 3.34 -4 2.68 -4 2 C-2.68 2 -1.36 2 0 2 C0 1.34 0 0.68 0 0 Z " fill="#0A0566" transform="translate(246,219)"/>
<path d="M0 0 C0.66 0.33 1.32 0.66 2 1 C0.9375 2.5 0.9375 2.5 -1 4 C-4.6875 4.1875 -4.6875 4.1875 -8 4 C-6.66666667 3.33333333 -5.33333333 2.66666667 -4 2 C-3.29875 1.608125 -2.5975 1.21625 -1.875 0.8125 C-1.25625 0.544375 -0.6375 0.27625 0 0 Z " fill="#422ED8" transform="translate(300,201)"/>
</svg>
